<svg xmlns="http://www.w3.org/2000/svg" viewBox="0 0 248.01 247.24"><defs><style>.cls-1{fill:#0087b3;}.cls-2{fill:none;stroke:#180c32;stroke-width:5.06px;}.cls-3{fill:#fff;}</style></defs><title>Ресурс 49</title><g id="Слой_2" data-name="Слой 2"><g id="In"><ellipse class="cls-1" cx="124" cy="123.62" rx="111.34" ry="110.99"/><ellipse class="cls-2" cx="124" cy="123.62" rx="121.47" ry="121.09"/><path class="cls-3" d="M71.16,177.15H87.44a4.06,4.06,0,0,0,4.06-4.06V102a4.06,4.06,0,0,0-4.06-4.06H71.16A4.06,4.06,0,0,0,67.1,102v71.14A4.06,4.06,0,0,0,71.16,177.15Z"/><path class="cls-3" d="M186.16,106.14A24.77,24.77,0,0,0,176,98.71a36.61,36.61,0,0,0-14.76-2.91q-16.4,0-27.79,12.52c-1.51,1.66-2.61,1.3-2.61-.95V102a4.06,4.06,0,0,0-4.06-4.06H112.28a4.07,4.07,0,0,0-4.07,4.06v71.14a4.07,4.07,0,0,0,4.07,4.06h16.27a4.07,4.07,0,0,0,4.07-4.06V148.35q0-15.47,1.86-21.19a17.52,17.52,0,0,1,6.91-9.21,19.54,19.54,0,0,1,11.38-3.47,14.55,14.55,0,0,1,8.47,2.43,13.6,13.6,0,0,1,5.08,6.82q1.56,4.38,1.56,19.32v30a4.07,4.07,0,0,0,4.07,4.06h16.27a4.06,4.06,0,0,0,4.06-4.06V132.8q0-10.68-1.34-16.41A26.91,26.91,0,0,0,186.16,106.14Z"/><circle class="cls-3" cx="79.18" cy="73.42" r="12.33"/></g></g></svg>