<svg xmlns="http://www.w3.org/2000/svg" viewBox="0 0 248.01 247.24"><defs><style>.cls-1{fill:#d91a13;}.cls-2{fill:none;stroke:#180c32;stroke-width:5.06px;}.cls-3{fill:#fff;}</style></defs><title>Ресурс 24</title><g id="Слой_2" data-name="Слой 2"><g id="Youtube"><ellipse class="cls-1" cx="124" cy="123.62" rx="111.34" ry="110.99"/><ellipse class="cls-2" cx="124" cy="123.62" rx="121.47" ry="121.09"/><path class="cls-3" d="M141.47,64.05V95.17a20.33,20.33,0,0,0,.63,5.93q1,2.93,4.66,2.92,3.94,0,8.14-4.9v4.35h7.19V64.05H154.9v30.1q-2.37,3.39-4.5,3.39c-1,0-1.5-.57-1.66-1.73a21.29,21.29,0,0,1-.08-2.77v-29Z"/><path class="cls-3" d="M125,104a9.71,9.71,0,0,0,8.37-4c1.48-1.94,2.21-5,2.21-9.32V76.84c0-4.21-.73-7.29-2.21-9.24a10.63,10.63,0,0,0-16.67,0c-1.48,2-2.21,5-2.21,9.24V90.67c0,4.22.73,7.33,2.21,9.32A9.77,9.77,0,0,0,125,104Zm-3.4-28.6q0-5.44,3.4-5.45t3.39,5.45V92q0,5.53-3.39,5.53T121.64,92Z"/><path class="cls-3" d="M104.89,103.47V82.06l9.56-31.53h-8.06L101,71.31,95.41,50.53H87q2.22,6.64,5.14,14.78A135.2,135.2,0,0,1,97,82.06v21.41Z"/><path class="cls-3" d="M178.64,115.87a14.48,14.48,0,0,0-8.09-3.71q-14.55-1.57-43.85-1.58t-43.78,1.58a14.35,14.35,0,0,0-8.13,3.71,15.08,15.08,0,0,0-4.59,7.83q-2.06,9.17-2,27.65,0,18.81,2,27.66a14.48,14.48,0,0,0,4.55,7.82,14,14,0,0,0,8.09,3.63q14.53,1.66,43.85,1.66t43.85-1.66a13.82,13.82,0,0,0,8.06-3.63,15.05,15.05,0,0,0,4.59-7.82q2.06-9.18,2.05-27.66,0-18.79-2.05-27.65A14.51,14.51,0,0,0,178.64,115.87Zm-77.07,15.81H93.12v44.95h-7.9V131.68h-8.3v-7.43h24.65v7.43Zm21.33,44.95h-7v-4.27q-4.26,4.83-8.06,4.83-3.63,0-4.58-2.93a19.55,19.55,0,0,1-.63-5.77V137.6h7v28.76a20.41,20.41,0,0,0,.08,2.77c.16,1.1.71,1.65,1.66,1.65q2.13,0,4.5-3.31V137.6h7v39Zm26.87-11.69q0,5.77-.72,7.9-1.34,4.35-5.61,4.35-3.78,0-7.34-4.35v3.79h-7V124.25h7V141.4q3.39-4.28,7.34-4.27,4.27,0,5.61,4.42.72,2.05.72,7.83Zm26.7-6.48H162.33v6.88q0,5.44,3.63,5.45,2.61,0,3.16-2.85a37.82,37.82,0,0,0,.16-4.82h7.19v1a33.65,33.65,0,0,1-.16,4.58,9.57,9.57,0,0,1-1.66,4.27q-2.84,4.19-8.53,4.19a10.15,10.15,0,0,1-8.53-4c-1.53-1.95-2.3-5-2.3-9.17V150.32q0-6.24,2.22-9.16a10.8,10.8,0,0,1,16.83,0q2.13,2.93,2.13,9.16v8.14Z"/><path class="cls-3" d="M165.88,143.53q-3.56,0-3.55,5.37v3.64h7.11V148.9Q169.44,143.53,165.88,143.53Z"/><path class="cls-3" d="M139.65,143.53a5.06,5.06,0,0,0-3.55,1.74v23.78a5.06,5.06,0,0,0,3.55,1.74c2.06,0,3.08-1.77,3.08-5.3V148.82C142.73,145.29,141.71,143.53,139.65,143.53Z"/></g></g></svg>