<svg xmlns="http://www.w3.org/2000/svg" viewBox="0 0 1825.3 553.07"><defs><style>.cls-1{fill:#f79156;}.cls-2{fill:#1c4d89;}.cls-3{fill:#fff;}</style></defs><g id="Слой_2" data-name="Слой 2"><g id="Logo_final" data-name="Logo final"><rect class="cls-1" width="499.62" height="499.62"/><rect class="cls-2" x="53.45" y="53.45" width="499.62" height="499.62"/><path class="cls-2" d="M778.86,324.08H683.12V433H646.58V183.79h36.54V290.62h95.74V183.79H815.4V433H778.86Z"/><path class="cls-2" d="M858.16,308.37q0-43.49,2.48-58.22,2.65-14.73,8.11-23.81,8.78-17.19,28.13-30.64,19-13.62,47.48-14,28.8.34,48,14,19,13.5,27.47,30.76,6.12,9.06,8.43,23.76t2.15,58.1q0,42.74-2.15,57.77-2.31,15-8.43,24.1-8.44,17.25-27.47,30.42-19.2,13.66-48,14.35-28.46-.69-47.48-14.35-19.36-13.17-28.13-30.42-2.65-5.64-4.8-10.77a72,72,0,0,1-3.31-13.33Q858.17,351.1,858.16,308.37Zm36.54,0q0,36.83,2.65,49.84,2.32,13,9.46,21.07a43.18,43.18,0,0,0,15.25,12.5q9.29,5.66,22.22,5.65,13.1,0,22.71-5.65a40.85,40.85,0,0,0,14.59-12.5q7.14-8.05,9.79-21.07,2.48-13,2.48-49.84t-2.48-50.17q-2.65-12.67-9.79-20.73A44.11,44.11,0,0,0,967,224.63q-9.62-5-22.71-5.31-12.93.35-22.22,5.31a46.63,46.63,0,0,0-15.25,12.84q-7.14,8.06-9.46,20.73Q894.7,271.55,894.7,308.37Z"/><path class="cls-2" d="M1068.37,183.79h36.54V344.58q.33,25.49,14.26,38.82,13.59,14,35,14t35.31-14q13.59-13.33,13.92-38.82V183.79h36.54V348.54q-.66,39.3-24.67,62.37-24.18,23.76-61.1,24.1-36.27-.35-60.61-24.07-24.84-23-25.17-62.31Z"/><path class="cls-2" d="M1271.58,401.68,1381,217.27H1272.48V183.79H1425.7v28.39L1312.39,397.43H1425.7V433H1271.58Z"/><path class="cls-2" d="M1460.94,183.79h154.18v35.53H1497.48v71.3H1597.9v33.46H1497.48v73.35h117.64V433H1460.94Z"/><path class="cls-2" d="M1648.59,183.79h94.3q30.16,0,49.22,16.41Q1815,218.83,1816,253.35q-.66,50.75-46.6,69L1825.3,433h-43.42l-50-106.49h-46.8V433h-36.54ZM1685.13,293h55.43q20.58-.35,30.87-12.34,10.13-11.13,10.12-27.42-.33-19.53-12.11-28.27-9.3-7.71-26.89-7.71h-57.42Z"/><rect class="cls-3" x="176.53" y="382.96" width="100" height="100"/><polygon class="cls-3" points="84.23 344.63 298.52 132.46 512.81 344.63 459.75 344.63 298.61 186.77 137.33 344.63 84.23 344.63"/><rect class="cls-3" x="403.4" y="195.18" width="39.21" height="86.72"/></g></g></svg>