<svg xmlns="http://www.w3.org/2000/svg" viewBox="0 0 1022.97 409.06"><defs><style>.cls-1{fill:#da3b26;}.cls-2{fill:#2f114f;}.cls-3{fill:#221044;}</style></defs><g id="Слой_2" data-name="Слой 2"><g id="Logo_IL_fin" data-name="Logo IL fin"><path class="cls-1" d="M216.64,136.59l.25-51L78.62,223.67v48.69c0,.68,0,1.35,0,2Z"/><path class="cls-1" d="M215.32,409.06l.81-166.36L105.25,353.42A136.47,136.47,0,0,0,215.32,409.06Z"/><path class="cls-1" d="M216.5,165,81.4,299.9a136.18,136.18,0,0,0,12.94,36.15L216.26,214.3Z"/><polygon class="cls-1" points="217.03 57.19 217.3 0 0 217 57 217 217.03 57.19"/><polygon class="cls-2" points="376.65 217 434.05 217 217.3 0 217.03 57.19 217.03 57.19 376.65 217"/><polygon class="cls-2" points="352.02 272.09 352.02 220.64 217.01 85.47 216.89 85.6 216.64 136.59 216.66 136.57 352.02 272.09"/><path class="cls-2" d="M336.91,334.88A135.85,135.85,0,0,0,349.62,298l-133-133.14-.14.14-.24,49.31.1-.1Z"/><path class="cls-2" d="M216.13,242.7l-.81,166.36A136.52,136.52,0,0,0,326.14,352.4L216.35,242.48Z"/><path class="cls-3" d="M486.32,60.34v130H457.75V60.34Z"/><path class="cls-3" d="M533.28,96.2v13.1h.54a29.67,29.67,0,0,1,12.74-11.92,36.83,36.83,0,0,1,16-3.73q10.36,0,17,2.82a25.22,25.22,0,0,1,10.47,7.83,30.2,30.2,0,0,1,5.37,12.19A75.88,75.88,0,0,1,597,132.41v57.88H571.13V137.15q0-11.66-3.64-17.38T554.57,114q-10.56,0-15.29,6.28T534.55,141v49.32H508.71V96.2Z"/><path class="cls-3" d="M639.92,190.29,607.71,96.2h27.12l19.84,64.24H655L674.87,96.2h25.66l-31.85,94.09Z"/><path class="cls-3" d="M738.93,167.72q5.82,5.64,16.74,5.64a23,23,0,0,0,13.47-3.91q5.64-3.91,6.92-8.28h22.75q-5.46,16.92-16.74,24.21t-27.3,7.28a53.81,53.81,0,0,1-20-3.55A41.71,41.71,0,0,1,719.64,179a45.56,45.56,0,0,1-9.56-15.65,57.47,57.47,0,0,1-3.36-20,55,55,0,0,1,3.45-19.65,45.53,45.53,0,0,1,25-26.21,48.67,48.67,0,0,1,19.57-3.82q12,0,20.93,4.64a41.82,41.82,0,0,1,14.65,12.47,51.31,51.31,0,0,1,8.28,17.83,66.56,66.56,0,0,1,1.82,20.93H732.56Q733.1,162.07,738.93,167.72Zm29.21-49.5q-4.64-5.1-14.1-5.1a22.44,22.44,0,0,0-10.29,2.1,19.54,19.54,0,0,0-6.55,5.18,18.92,18.92,0,0,0-3.45,6.55,29.53,29.53,0,0,0-1.19,6.19h42Q772.79,123.32,768.14,118.22Z"/><path class="cls-3" d="M837.48,166.9a15.08,15.08,0,0,0,4.46,4.92,19.24,19.24,0,0,0,6.28,2.82,29.41,29.41,0,0,0,7.37.91,27.25,27.25,0,0,0,5.73-.64,19.18,19.18,0,0,0,5.46-2,12.35,12.35,0,0,0,4.1-3.64,9.59,9.59,0,0,0,1.64-5.73q0-5.83-7.74-8.74A155,155,0,0,0,843.22,149q-5.65-1.28-11-3a37.17,37.17,0,0,1-9.55-4.55,22,22,0,0,1-6.73-7.09,20,20,0,0,1-2.55-10.47q0-9.1,3.55-14.92a26.11,26.11,0,0,1,9.37-9.19A41,41,0,0,1,839.39,95a80.9,80.9,0,0,1,14.93-1.36,74.59,74.59,0,0,1,14.83,1.46A39.34,39.34,0,0,1,882,100a29.35,29.35,0,0,1,9.37,9.19q3.74,5.73,4.46,14.47H871.24q-.54-7.47-5.64-10.1a25.78,25.78,0,0,0-12-2.64,45,45,0,0,0-4.73.27,15.88,15.88,0,0,0-4.64,1.18,9.59,9.59,0,0,0-3.55,2.64,6.94,6.94,0,0,0-1.46,4.64,7.1,7.1,0,0,0,2.55,5.65,19.75,19.75,0,0,0,6.64,3.55,83.06,83.06,0,0,0,9.38,2.45q5.26,1.1,10.73,2.37a110.36,110.36,0,0,1,11,3.09,36.21,36.21,0,0,1,9.56,4.83,23.33,23.33,0,0,1,6.73,7.46,21.87,21.87,0,0,1,2.55,11q0,9.28-3.73,15.56a29.81,29.81,0,0,1-9.74,10.1,39.78,39.78,0,0,1-13.74,5.37,80.16,80.16,0,0,1-15.74,1.55,78.17,78.17,0,0,1-16-1.64,42.11,42.11,0,0,1-13.92-5.46,31.26,31.26,0,0,1-10-10.1q-3.91-6.28-4.28-15.75h24.57A14.18,14.18,0,0,0,837.48,166.9Z"/><path class="cls-3" d="M965.15,96.2v17.29H946.23v46.59c0,4.37.72,7.28,2.18,8.73s4.37,2.19,8.74,2.19c1.45,0,2.85-.06,4.18-.18a33.74,33.74,0,0,0,3.82-.55v20a61.94,61.94,0,0,1-7.28.73q-4,.18-7.82.18a74.94,74.94,0,0,1-11.38-.82,26.82,26.82,0,0,1-9.46-3.18,16.86,16.86,0,0,1-6.46-6.74q-2.37-4.36-2.37-11.46V113.49H904.73V96.2h15.65V68h25.85V96.2Z"/><path class="cls-3" d="M488.08,215.94V321.87h63.33v24H459.5V215.94Z"/><path class="cls-3" d="M563.6,280.74q.55-9.11,4.56-15.11A30.93,30.93,0,0,1,578.35,256a44.44,44.44,0,0,1,13.92-5.18,79.26,79.26,0,0,1,15.56-1.55,106.77,106.77,0,0,1,14.38,1,44.21,44.21,0,0,1,13.29,3.92,26.24,26.24,0,0,1,9.82,8.09q3.82,5.19,3.82,13.75V325a99.51,99.51,0,0,0,.73,12.2q.74,5.82,2.55,8.73H626.21a37,37,0,0,1-1.18-4.46,39,39,0,0,1-.64-4.64,33.64,33.64,0,0,1-14.56,8.92,58.38,58.38,0,0,1-17.11,2.55,46.22,46.22,0,0,1-12.55-1.64,28.7,28.7,0,0,1-10.2-5.1,23.68,23.68,0,0,1-6.82-8.73,29.5,29.5,0,0,1-2.46-12.56q0-8,2.82-13.19a23.56,23.56,0,0,1,7.28-8.28,32.7,32.7,0,0,1,10.2-4.65,109.85,109.85,0,0,1,11.55-2.45q5.82-.92,11.47-1.46a68.11,68.11,0,0,0,10-1.64,17.4,17.4,0,0,0,6.91-3.18,7,7,0,0,0,2.37-6.1,13.71,13.71,0,0,0-1.36-6.64,10.07,10.07,0,0,0-3.64-3.82A14.3,14.3,0,0,0,613,267a42.32,42.32,0,0,0-6.46-.46q-7.65,0-12,3.28t-5.09,10.92Zm59.7,19.11a11.53,11.53,0,0,1-4.09,2.27,42.31,42.31,0,0,1-5.28,1.37c-1.89.36-3.86.67-5.92.91s-4.12.54-6.18.91a46.81,46.81,0,0,0-5.74,1.45,17,17,0,0,0-4.91,2.46,11.69,11.69,0,0,0-3.37,3.91,12.6,12.6,0,0,0-1.27,6,12.1,12.1,0,0,0,1.27,5.82,9.72,9.72,0,0,0,3.46,3.73,14.63,14.63,0,0,0,5.1,1.92,32.74,32.74,0,0,0,6,.54q7.65,0,11.83-2.55a17.06,17.06,0,0,0,6.19-6.09,19.72,19.72,0,0,0,2.46-7.19,50,50,0,0,0,.45-5.83Z"/><path class="cls-3" d="M693.73,251.8v13.1h.55A29.62,29.62,0,0,1,707,253a36.94,36.94,0,0,1,16-3.73q10.37,0,17,2.82a25.22,25.22,0,0,1,10.47,7.83,30.54,30.54,0,0,1,5.37,12.19A76,76,0,0,1,757.43,288v57.87H731.59V292.75q0-11.64-3.64-17.38T715,269.64q-10.56,0-15.29,6.27T695,296.57v49.32H669.16V251.8Z"/><path class="cls-3" d="M843.88,333.88a26.61,26.61,0,0,1-11.92,11,39.56,39.56,0,0,1-16.65,3.37,40.26,40.26,0,0,1-18.57-4.1,37.26,37.26,0,0,1-13.19-11.1A50.33,50.33,0,0,1,775.72,317,67.51,67.51,0,0,1,773.08,298a63.46,63.46,0,0,1,2.64-18.29,47.47,47.47,0,0,1,7.83-15.56,38,38,0,0,1,31.21-14.93,37,37,0,0,1,15.93,3.55,27.86,27.86,0,0,1,11.92,10.47H843V215.94h25.84v130H844.24v-12Zm-1.09-46.5a27.35,27.35,0,0,0-3.73-9.46,21.07,21.07,0,0,0-6.83-6.65,20.08,20.08,0,0,0-10.55-2.54,21.08,21.08,0,0,0-10.74,2.54,20.21,20.21,0,0,0-7,6.74,29.74,29.74,0,0,0-3.82,9.55,51.82,51.82,0,0,0-1.18,11.2,47.94,47.94,0,0,0,1.27,10.92,29.69,29.69,0,0,0,4.1,9.73,22.61,22.61,0,0,0,7.09,6.92A19.21,19.21,0,0,0,821.68,329a20.47,20.47,0,0,0,10.64-2.55,19.35,19.35,0,0,0,6.83-6.83,30.55,30.55,0,0,0,3.64-9.73,57.26,57.26,0,0,0,1.09-11.29A55.89,55.89,0,0,0,842.79,287.38Z"/><path class="cls-3" d="M889,237.24v-21.3h25.84v21.3Zm25.84,14.56v94.09H889V251.8Z"/><path class="cls-3" d="M934.15,280.74q.54-9.11,4.55-15.11A31.12,31.12,0,0,1,948.89,256a44.59,44.59,0,0,1,13.93-5.18,79.18,79.18,0,0,1,15.56-1.55,106.51,106.51,0,0,1,14.37,1,44,44,0,0,1,13.29,3.92,26.27,26.27,0,0,1,9.83,8.09q3.82,5.19,3.82,13.75V325a97.57,97.57,0,0,0,.73,12.2q.72,5.82,2.55,8.73H996.76a35.23,35.23,0,0,1-1.18-4.46,37,37,0,0,1-.64-4.64,33.7,33.7,0,0,1-14.56,8.92,58.42,58.42,0,0,1-17.11,2.55,46.3,46.3,0,0,1-12.56-1.64,28.65,28.65,0,0,1-10.19-5.1,23.57,23.57,0,0,1-6.82-8.73,29.5,29.5,0,0,1-2.46-12.56q0-8,2.82-13.19a23.46,23.46,0,0,1,7.28-8.28,32.64,32.64,0,0,1,10.19-4.65,109.5,109.5,0,0,1,11.56-2.45q5.82-.92,11.46-1.46a68.11,68.11,0,0,0,10-1.64,17.39,17.39,0,0,0,6.92-3.18,7,7,0,0,0,2.37-6.1,13.7,13.7,0,0,0-1.37-6.64,10,10,0,0,0-3.64-3.82,14.24,14.24,0,0,0-5.28-1.82,42.22,42.22,0,0,0-6.46-.46q-7.64,0-12,3.28T960,280.74Zm59.7,19.11a11.58,11.58,0,0,1-4.1,2.27,42.31,42.31,0,0,1-5.28,1.37c-1.88.36-3.85.67-5.91.91s-4.13.54-6.19.91a47.12,47.12,0,0,0-5.73,1.45,17,17,0,0,0-4.92,2.46,11.66,11.66,0,0,0-3.36,3.91,12.59,12.59,0,0,0-1.28,6,12.1,12.1,0,0,0,1.28,5.82,9.7,9.7,0,0,0,3.45,3.73,14.78,14.78,0,0,0,5.1,1.92,32.85,32.85,0,0,0,6,.54q7.64,0,11.83-2.55a17,17,0,0,0,6.18-6.09,19.36,19.36,0,0,0,2.46-7.19,50.39,50.39,0,0,0,.46-5.83Z"/></g></g></svg>