<svg xmlns="http://www.w3.org/2000/svg" viewBox="0 0 716.42 309.69"><defs><style>.cls-1{fill:#ff2600;}.cls-2{fill:#221044;}</style></defs><g id="Слой_2" data-name="Слой 2"><g id="Слой_56_копия_" data-name="Слой 56 (копия)"><path class="cls-1" d="M201.51,98.44l-22.26,17.43L164.51,42.75l43.55-.15v-17l-46.94.26S156.61-.28,155.25,0c-1.38-.38-5.58,24.83-6.14,25.87A130.11,130.11,0,0,0,24.74,148.64c-33,6.69-32.9,4.82-.07,11.81a130.09,130.09,0,0,0,123.43,125c6.53,32.46,4.74,32.17,11.56.05l48.4.33-.33-17.2-44.51.09,15.11-71.42,23.43,15.07C184.92,175.47,185,137.55,201.51,98.44Zm-56-55.79-15.08,71.28L76.65,73.34A112.93,112.93,0,0,1,145.55,42.65ZM72.89,77l39.83,53.87L41.59,145.25A113,113,0,0,1,72.89,77ZM41.42,164l73,15.44L73,234.42A113.09,113.09,0,0,1,41.42,164ZM77,238.39l53.61-39.61,14.08,69.85A113.07,113.07,0,0,1,77,238.39Zm76.57-102.28c18-1.56,27.51,23.85,12.33,34.35C137.85,188.28,120.66,140.13,153.58,136.11Z"/><path class="cls-2" d="M226.5,32.22V26.29h53.23v5.93h-9.06c-4.16,0-6.74.5-7.72,1.49s-1.49,3.09-1.49,6.32v87.41a15.67,15.67,0,0,0,.63,5.31q1.25,3,7.49,3h10.15v5.93H226.5v-5.93h10.14q5.31,0,6.87-1.57t1.56-6.71V40q0-4.85-1.4-6.09c-1.25-1.14-4-1.72-8.12-1.72Z"/><path class="cls-2" d="M288.23,73.59V68.44l24.35-1.25q1.1,5,1.64,8.82a49.65,49.65,0,0,1,.55,7.1q9.68-15.92,26.69-15.92,10.92,0,17,6.87T364.56,93v35.59c0,2.6.55,4.44,1.64,5.54s3.1,1.64,6,1.64h5.31v5.93H338.81v-5.93h3.59q9.21,0,9.21-6.56V97.94q0-22.17-16.39-22.17-8.6,0-14.52,7t-5.93,18.57v27.17c0,2.7.57,4.58,1.72,5.61s3.22,1.57,6.24,1.57h5v5.93H289v-5.93h5q7.8,0,7.8-5.47V83.11q0-9.51-9.68-9.52Z"/><path class="cls-2" d="M369.4,73.9V68.44h35.9V73.9a29.81,29.81,0,0,0-8.42.86,3.62,3.62,0,0,0-2.66,3.82,9.66,9.66,0,0,0,.78,3.28l19.36,42.93L432,83.11l.62-2.18a5.21,5.21,0,0,0-2.89-4.77,22.92,22.92,0,0,0-8.5-2.26V68.44h30.28V73.9a15.91,15.91,0,0,0-7.1,2.26,12.67,12.67,0,0,0-4.45,5.7l-26.85,62h-4.22L380.17,80.15c-1.14-2.6-2.5-4.3-4.06-5.08A15.39,15.39,0,0,0,369.4,73.9Z"/><path class="cls-2" d="M511.45,119.48l5.15,2.19q-11.4,22.17-32.94,22.16a32.58,32.58,0,0,1-24.74-10.53Q449,122.76,449,106.06q0-17.64,9.68-28.72A31.13,31.13,0,0,1,483.2,66.25q15,0,24,10.54t9,29.11H463.68a66.12,66.12,0,0,0,.78,10.77,25.68,25.68,0,0,0,2.66,8.12q6.39,12,19.82,12Q502.24,136.81,511.45,119.48ZM463.68,100h31.69q5.92,0,5.93-7.81a22.25,22.25,0,0,0-5.23-14.9,16.09,16.09,0,0,0-12.72-6.17q-8.75,0-14.2,7.65T463.68,100Z"/><path class="cls-2" d="M526.2,114.17h5.15q4.53,12.64,10.62,18.35T558,138.21q8,0,12.72-3.66a11.41,11.41,0,0,0,4.77-9.45q0-9.21-11.4-11.24L544,109.49a22.07,22.07,0,0,1-12.09-7.18,18.38,18.38,0,0,1-4.45-12.17A22.06,22.06,0,0,1,534.24,74q6.78-6.8,18-6.79a28.88,28.88,0,0,1,17.64,5.93l5.15-5.46h3.28l1.87,26.07h-5.15q-3.28-10.62-8.9-15.77t-14.67-5.15q-7.5,0-11.79,3.67a11.37,11.37,0,0,0-4.29,9q0,9.38,31.84,15a20.33,20.33,0,0,1,12.65,6.87,19.7,19.7,0,0,1,4.84,13.26,21.06,21.06,0,0,1-7.65,16.71q-7.65,6.56-19.2,6.55a31.7,31.7,0,0,1-10.7-1.64,34.58,34.58,0,0,1-9.6-5.54L532,143.21h-4.21Z"/><path class="cls-2" d="M589,75.62V70.15q20.44-3.42,20.45-31.37h5.31V68.44h23.72v7.18H614.71v47q0,5.94,2.8,9.37a9.54,9.54,0,0,0,7.81,3.43,10.88,10.88,0,0,0,9.6-5.46q3.51-5.46,3.51-15.92h5.31q0,14-6.17,21.46T621,142.9q-8.9,0-14.05-4.84t-5.15-13.43v-49Z"/><path class="cls-2" d="M227.61,175.43v-5.94h53.54v5.94h-12.8q-6.09,0-6.09,5.46v93.19q0,4.85,9.37,4.84H287.7q14.06,0,21.86-9.21T321,240.36h5.47l-2.5,44.49H227.61v-5.93h9.52q4.68,0,6.71-1.64c1.35-1.09,2-3.1,2-6V181.05q0-5.62-5.15-5.62Z"/><path class="cls-2" d="M349.28,222.26q0,.62,2.66,5.15a8.43,8.43,0,0,1,1.4,4.21q0,7.81-8.11,7.81a9.32,9.32,0,0,1-6.64-2.42c-1.72-1.62-2.57-3.93-2.57-6.95q0-8.12,9.05-14.28t22.63-6.17q12.33,0,19.44,5.39a16.77,16.77,0,0,1,7.1,14v40.11q0,10.16,6.24,10.15a9,9,0,0,0,3.2-.55,13.29,13.29,0,0,0,3.2-1.79l3,4.21Q404.23,287,397.36,287q-10.77,0-15.45-13.12-6.87,7.18-11.86,9.84A31,31,0,0,1,355.22,287q-10.77,0-16.78-4.69a15,15,0,0,1-6-12.49q0-11.07,12.87-18.8t36-10.39V229.75a13.1,13.1,0,0,0-4.76-10.46,17.73,17.73,0,0,0-11.94-4.06,22.68,22.68,0,0,0-10.69,2.42C350.82,219.27,349.28,220.8,349.28,222.26Zm32,34.18V246q-18.11,2.51-26.3,7.57a16.33,16.33,0,0,0-8.19,14.75q0,5.94,3.2,9.29a11.39,11.39,0,0,0,8.66,3.36A21.48,21.48,0,0,0,374.49,274Q381.29,267.06,381.28,256.44Z"/><path class="cls-2" d="M415.63,216.79v-5.15L440,210.39q1.08,5,1.64,8.82a51,51,0,0,1,.54,7.1q9.68-15.92,26.69-15.92,10.93,0,17,6.87T492,236.15v35.59c0,2.6.54,4.45,1.64,5.54s3.09,1.64,6,1.64h5.3v5.93H466.2v-5.93h3.59q9.21,0,9.21-6.56V241.14Q479,219,462.61,219q-8.58,0-14.52,7t-5.93,18.58v27.16c0,2.7.57,4.58,1.72,5.62s3.22,1.56,6.24,1.56h5v5.93H416.41v-5.93h5q7.8,0,7.81-5.47V226.31q0-9.51-9.68-9.52Z"/><path class="cls-2" d="M559.86,284.85,558,270q-9.22,16.08-23.73,16.08-12.81,0-21.39-10.69t-8.58-27.55q0-16.71,9.21-27.4t22.16-10.69q14.21,0,22.33,13.89V182.45q0-7.19-10.62-7.18h-5v-5.78l28.56-1.56V268q0,10.93,8.74,10.93h5.15v5.93Zm-22.17-69q-18.42,0-18.42,29.81,0,33.25,18.27,33.25,9,0,14.75-8.74t5.7-24.35q0-13.43-5.78-21.7T537.69,215.86Z"/><path class="cls-2" d="M592.72,217.57v-5.93l29-1.25v63.22c0,3.54,1.92,5.31,5.78,5.31h8.27v5.93H594.28v-5.93h7.65c4.57,0,6.87-2.19,6.87-6.56V226.31q0-8.73-10-8.74Zm20.13-49.64a8.55,8.55,0,0,1,6.25,2.66,8.71,8.71,0,0,1,2.65,6.4,8.25,8.25,0,0,1-2.5,6.08,9,9,0,0,1-12.48,0,8.25,8.25,0,0,1-2.5-6.08,9,9,0,0,1,2.57-6.33A8.06,8.06,0,0,1,612.85,167.93Z"/><path class="cls-2" d="M655.86,222.26q0,.62,2.65,5.15a8.36,8.36,0,0,1,1.41,4.21q0,7.81-8.12,7.81a9.28,9.28,0,0,1-6.63-2.42c-1.72-1.62-2.58-3.93-2.58-6.95q0-8.12,9-14.28t22.64-6.17q12.33,0,19.43,5.39a16.74,16.74,0,0,1,7.1,14v40.11q0,10.16,6.25,10.15a9.08,9.08,0,0,0,3.2-.55,13.48,13.48,0,0,0,3.2-1.79l3,4.21Q710.81,287,703.94,287q-10.77,0-15.46-13.12-6.87,7.18-11.86,9.84A31,31,0,0,1,661.79,287Q651,287,645,282.35a15,15,0,0,1-6-12.49q0-11.07,12.88-18.8t36-10.39V229.75a13.13,13.13,0,0,0-4.76-10.46,17.76,17.76,0,0,0-11.94-4.06,22.72,22.72,0,0,0-10.7,2.42C657.39,219.27,655.86,220.8,655.86,222.26Zm32,34.18V246q-18.11,2.51-26.31,7.57a16.33,16.33,0,0,0-8.19,14.75q0,5.94,3.2,9.29a11.39,11.39,0,0,0,8.66,3.36A21.5,21.5,0,0,0,681.07,274Q687.85,267.06,687.86,256.44Z"/></g></g></svg>